#!OML:ASF H:\LiuWeirdWalks\Patient Classification 1\Patient 1\Session 1\male.ASF
:FULLY-SPECIFIED
:DEGREES
176
root -1.0674 17.7087 -28.9011 4.40752 5.07237 -2.03411
lowerback 4.86251 2.19744 1.86002
upperback 0.176873 3.11527 3.0228
thorax -2.61279 1.54864 1.84921
lowerneck -17.9188 -5.96491 -5.95365
upperneck 18.4218 -6.50795 -0.282062
head 8.92098 -3.50206 0.0304659
rclavicle 2.127e-014 3.73715e-014
rhumerus -36.0814 -8.39414 -78.7325
rradius 25.7047
rwrist -12.0589
rhand -19.2135 -0.438
rfingers 7.12502
rthumb 7.0991 -30.2989
lclavicle 2.127e-014 3.73715e-014
lhumerus -37.0609 -1.69149 84.6659
lradius 40.116
lwrist 12.1513
lhand -14.1655 -3.32653
lfingers 7.12502
lthumb 11.9695 26.3113
rfemur -7.7951 -4.54488 25.7253
rtibia 30.1639
rfoot -20.5302 -22.7105
rtoes -0.6631
lfemur -20.4669 -1.41105 -13.0216
ltibia 48.9662
lfoot -15.1455 12.9823
ltoes -16.909
177
root -1.08279 17.7067 -28.8597 4.29164 5.35431 -2.18196
lowerback 4.93461 2.43099 2.08377
upperback 0.220649 3.44013 3.02378
thorax -2.60164 1.70775 1.70034
lowerneck -17.7675 -6.21796 -6.17066
upperneck 18.3273 -6.82474 -0.203197
head 8.88228 -3.6565 0.054673
rclavicle -3.84648e-014 -3.97569e-014
rhumerus -35.6843 -8.12254 -78.9961
rradius 25.9804
rwrist -12.3693
rhand -19.3495 -0.448125
rfingers 7.12502
rthumb 6.96781 -30.3134
lclavicle -3.84648e-014 -3.97569e-014
lhumerus -37.1648 -1.61706 84.5562
lradius 40.1935
lwrist 12.142
lhand -14.1379 -3.33347
lfingers 7.12502
lthumb 11.9961 26.3028
rfemur -7.36217 -4.70319 25.957
rtibia 29.8324
rfoot -20.5358 -22.7622
rtoes -0.773853
lfemur -21.2731 -1.65904 -12.8057
ltibia 50.0044
lfoot -15.3732 12.2793
ltoes -17.1755
178
root -1.09717 17.7052 -28.8164 4.16582 5.58903 -2.33454
lowerback 5.01579 2.6815 2.31081
upperback 0.270989 3.78804 3.02473
thorax -2.58632 1.87839 1.54774
lowerneck -17.632 -6.47865 -6.39015
upperneck 18.2527 -7.14971 -0.129127
head 8.8544 -3.81559 0.0757398
rclavicle -3.40916e-014 1.98785e-014
rhumerus -35.2543 -7.86774 -79.2291
rradius 26.2623
rwrist -12.6491
rhand -19.4975 -0.464295
rfingers 7.12502
rthumb 6.82489 -30.3343
lclavicle -3.40916e-014 1.98785e-014
lhumerus -37.2716 -1.51023 84.423
lradius 40.2742
lwrist 12.1323
lhand -14.1133 -3.3777
lfingers 7.12502
lthumb 12.0199 26.2571
rfemur -6.90394 -4.82696 26.1871
rtibia 29.477
rfoot -20.5174 -22.8125
rtoes -0.916388
lfemur -22.0508 -1.85574 -12.6025
ltibia 50.9035
lfoot -15.5516 11.6
ltoes -17.3989
179
root -1.11089 17.7041 -28.7711 4.03903 5.79938 -2.4743
lowerback 5.09497 2.94299 2.52023
upperback 0.32059 4.14959 3.02148
thorax -2.56888 2.0561 1.39976
lowerneck -17.4948 -6.74438 -6.60716
upperneck 18.1824 -7.48222 -0.0585609
head 8.82875 -3.97851 0.0941821
rclavicle 4.11484e-014 2.22639e-014
rhumerus -34.7852 -7.64433 -79.4247
rradius 26.5321
rwrist -12.9383
rhand -19.6255 -0.474246
rfingers 7.12502
rthumb 6.70135 -30.3482
lclavicle 4.11484e-014 2.22639e-014
lhumerus -37.3943 -1.37709 84.2657
lradius 40.3541
lwrist 12.1127
lhand -14.1303 -3.38914
lfingers 7.12502
lthumb 12.0034 26.2467
rfemur -6.43022 -4.92994 26.4003
rtibia 29.1059
rfoot -20.4838 -22.8664
rtoes -1.08427
lfemur -22.8048 -2.0123 -12.427
ltibia 51.6564
lfoot -15.657 11.0055
ltoes -17.605
180
root -1.12412 17.7035 -28.724 3.91392 6.00381 -2.60053
lowerback 5.16787 3.20442 2.70669
upperback 0.367499 4.50981 3.02032
thorax -2.54989 2.23353 1.26709
lowerneck -17.3849 -7.00682 -6.80917
upperneck 18.1639 -7.80573 -0.0203371
head 8.82448 -4.1399 0.0986516
rclavicle 2.41523e-014 2.14687e-014
rhumerus -34.2853 -7.43325 -79.5793
rradius 26.7985
rwrist -13.241
rhand -19.7427 -0.50761
rfingers 7.12502
rthumb 6.58819 -30.3851
lclavicle 2.41523e-014 2.14687e-014
lhumerus -37.5638 -1.20128 84.0849
lradius 40.4528
lwrist 12.0944
lhand -14.2334 -3.37227
lfingers 7.12502
lthumb 11.9041 26.2693
rfemur -5.94339 -5.03052 26.5971
rtibia 28.7192
rfoot -20.4264 -22.9234
rtoes -1.28279
lfemur -23.5275 -2.15373 -12.2771
ltibia 52.2541
lfoot -15.7063 10.5126
ltoes -17.6947
181
root -1.13695 17.7031 -28.6762 3.80913 6.21015 -2.7067
lowerback 5.23294 3.46642 2.86754
upperback 0.406478 4.86931 3.01588
thorax -2.53411 2.4109 1.14556
lowerneck -17.2536 -7.27401 -7.02287
upperneck 18.1427 -8.13555 0.0208873
head 8.8172 -4.30484 0.105766
rclavicle -4.8901e-014 8.74653e-015
rhumerus -33.7428 -7.24372 -79.6899
rradius 27.0531
rwrist -13.5791
rhand -19.82 -0.571648
rfingers 7.12502
rthumb 6.51355 -30.4515
lclavicle -4.8901e-014 8.74653e-015
lhumerus -37.757 -0.998806 83.8803
lradius 40.5567
lwrist 12.0856
lhand -14.356 -3.35851
lfingers 7.12502
lthumb 11.7859 26.2899
rfemur -5.47133 -5.1306 26.7728
rtibia 28.3208
rfoot -20.3442 -22.9852
rtoes -1.51231
lfemur -24.2455 -2.28653 -12.1596
ltibia 52.6995
lfoot -15.6724 10.1389
ltoes -17.7181
182
root -1.14847 17.7036 -28.6258 3.70774 6.40034 -2.78189
lowerback 5.29669 3.74299 3.00536
upperback 0.436363 5.24679 2.99353
thorax -2.52517 2.59728 1.01696
lowerneck -17.0753 -7.56146 -7.23561
upperneck 18.1359 -8.50039 0.0712033
head 8.80906 -4.48559 0.112373
rclavicle 6.75868e-015 3.49861e-014
rhumerus -33.1798 -7.11274 -79.7595
rradius 27.2803
rwrist -13.8669
rhand -19.8814 -0.628784
rfingers 7.12502
rthumb 6.45431 -30.5104
lclavicle 6.75868e-015 3.49861e-014
lhumerus -37.9788 -0.803532 83.6462
lradius 40.6616
lwrist 12.11
lhand -14.4705 -3.33769
lfingers 7.12502
lthumb 11.6754 26.317
rfemur -4.97967 -5.24309 26.9018
rtibia 27.9014
rfoot -20.2518 -23.0125
rtoes -1.74225
lfemur -24.9224 -2.41815 -12.0903
ltibia 52.9859
lfoot -15.5805 9.88716
ltoes -17.75
183
root -1.15955 17.7051 -28.5745 3.61789 6.60273 -2.84057
lowerback 5.37465 4.02941 3.13654
upperback 0.439909 5.63837 2.94949
thorax -2.54755 2.79008 0.866668
lowerneck -16.7353 -7.86643 -7.43212
upperneck 18.0426 -8.91312 0.143526
head 8.74559 -4.68607 0.125614
rclavicle 7.06679e-014 7.95139e-016
rhumerus -32.6301 -7.04823 -79.7955
rradius 27.5025
rwrist -14.1323
rhand -19.9466 -0.681707
rfingers 7.12502
rthumb 6.39135 -30.5653
lclavicle 7.06679e-014 7.95139e-016
lhumerus -38.2433 -0.650486 83.3758
lradius 40.76
lwrist 12.134
lhand -14.5505 -3.34228
lfingers 7.12502
lthumb 11.5983 26.3168
rfemur -4.48536 -5.35534 27.0126
rtibia 27.4581
rfoot -20.1553 -23.037
rtoes -1.92849
lfemur -25.5904 -2.56771 -12.0474
ltibia 53.1253
lfoot -15.3983 9.7639
ltoes -17.7215
184
root -1.16885 17.7078 -28.5205 3.51842 6.78571 -2.87602
lowerback 5.43915 4.33374 3.25841
upperback 0.445574 6.05198 2.88832
thorax -2.55663 2.99396 0.703537
lowerneck -16.3 -8.16015 -7.56301
upperneck 17.8912 -9.33012 0.18631
head 8.64178 -4.888 0.124448
rclavicle -2.64384e-014 5.56597e-015
rhumerus -32.0866 -7.05102 -79.7838
rradius 27.7244
rwrist -14.3312
rhand -19.9506 -0.595408
rfingers 7.12502
rthumb 6.38754 -30.4791
lclavicle -2.64384e-014 5.56597e-015
lhumerus -38.5146 -0.516877 83.0712
lradius 40.8457
lwrist 12.1771
lhand -14.5365 -3.36135
lfingers 7.12502
lthumb 11.6118 26.2969
rfemur -3.94901 -5.47482 27.0818
rtibia 26.9781
rfoot -20.0568 -23.0238
rtoes -2.07954
lfemur -26.2115 -2.72163 -12.0479
ltibia 53.1171
lfoot -15.139 9.78244
ltoes -17.7246
185
root -1.17756 17.7113 -28.4656 3.4292 6.98756 -2.89819
lowerback 5.48595 4.54522 3.30773
upperback 0.494724 6.33773 2.9209
thorax -2.52816 3.13653 0.688304
lowerneck -15.9734 -8.38622 -7.23688
upperneck 17.5874 -9.63449 -0.357835
head 8.44625 -5.06613 -0.123506
rclavicle -1.26228e-014 -6.36111e-015
rhumerus -31.4015 -6.69456 -79.7408
rradius 27.9553
rwrist -14.5775
rhand -19.9172 -0.441957
rfingers 7.12502
rthumb 6.41977 -30.3247
lclavicle -1.26228e-014 -6.36111e-015
lhumerus -38.8075 0.0170417 82.7474
lradius 40.9437
lwrist 12.1515
lhand -14.4604 -3.33722
lfingers 7.12502
lthumb 11.6851 26.3169
rfemur -3.40218 -5.59788 27.1369
rtibia 26.4645
rfoot -19.9575 -23.0089
rtoes -2.17776
lfemur -26.8315 -2.90261 -12.071
ltibia 52.977
lfoot -14.8274 9.90948
ltoes -17.7202
186
root -1.1857 17.7154 -28.41 3.3453 7.19689 -2.92376
lowerback 5.48704 4.49414 3.19515
upperback 0.707252 6.26297 3.24076
thorax -2.35809 3.10626 1.09177
lowerneck -16.0005 -8.60102 -6.56023
upperneck 17.2097 -9.77449 -1.90658
head 8.20977 -5.24326 -0.740587
rclavicle -3.95581e-014 -1.11319e-014
rhumerus -30.2439 -5.27834 -79.6571
rradius 28.1538
rwrist -14.9613
rhand -19.8601 -0.252894
rfingers 7.12502
rthumb 6.47486 -30.1339
lclavicle -3.95581e-014 -1.11319e-014
lhumerus -39.0891 1.69667 82.4433
lradius 41.0617
lwrist 11.9717
lhand -14.3345 -3.32007
lfingers 7.12502
lthumb 11.8066 26.3271
rfemur -2.84037 -5.71616 27.1962
rtibia 25.9103
rfoot -19.8426 -22.9991
rtoes -2.25452
lfemur -27.4522 -3.09939 -12.0982
ltibia 52.7138
lfoot -14.4808 10.136
ltoes -17.702
187
root -1.19283 17.7196 -28.3534 3.28351 7.42296 -2.9298
lowerback 5.46493 4.25933 2.97987
upperback 1.02841 5.93567 3.7394
thorax -2.08974 2.95273 1.75949
lowerneck -16.3634 -8.75461 -5.41944
upperneck 16.6652 -9.7675 -4.30611
head 7.90217 -5.40459 -1.68704
rclavicle -2.76311e-014 -1.59028e-014
rhumerus -28.7441 -3.12735 -79.5041
rradius 28.3387
rwrist -15.4892
rhand -19.7832 -0.0409376
rfingers 7.12502
rthumb 6.54907 -29.9197
lclavicle -2.76311e-014 -1.59028e-014
lhumerus -39.3837 4.15646 82.1538
lradius 41.1971
lwrist 11.7127
lhand -14.2416 -3.28376
lfingers 7.12502
lthumb 11.8961 26.3583
rfemur -2.28686 -5.85235 27.2322
rtibia 25.3375
rfoot -19.7318 -22.9847
rtoes -2.32279
lfemur -28.0878 -3.32653 -12.1545
ltibia 52.3474
lfoot -14.1344 10.4418
ltoes -17.6323
188
root -1.19987 17.7235 -28.2957 3.22044 7.65152 -2.97205
lowerback 5.45959 4.0605 2.84765
upperback 1.32074 5.66087 4.19665
thorax -1.84135 2.82212 2.3341
lowerneck -16.8762 -8.84127 -4.13273
upperneck 16.1439 -9.73036 -6.6957
head 7.62243 -5.5431 -2.6492
rclavicle 2.50469e-014 -1.59028e-015
rhumerus -27.3096 -1.13624 -79.2853
rradius 28.591
rwrist -16.0419
rhand -19.7219 0.0537582
rfingers 7.12502
rthumb 6.6083 -29.8231
lclavicle 2.50469e-014 -1.59028e-015
lhumerus -39.736 6.45186 81.8312
lradius 41.3237
lwrist 11.494
lhand -14.2307 -3.22926
lfingers 7.12502
lthumb 11.9067 26.4122
rfemur -1.71836 -5.96304 27.3148
rtibia 24.7316
rfoot -19.6086 -22.998
rtoes -2.3896
lfemur -28.7155 -3.55641 -12.1729
ltibia 51.8872
lfoot -13.8335 10.7825
ltoes -17.5133
189
root -1.20688 17.7247 -28.2377 3.17199 7.90246 -3.03006
lowerback 5.48549 3.96004 2.81392
upperback 1.51852 5.52473 4.52245
thorax -1.68432 2.75741 2.70417
lowerneck -17.3298 -8.88965 -3.0512
upperneck 15.7325 -9.71257 -8.58708
head 7.40744 -5.6561 -3.42182
rclavicle -1.8487e-014 2.54444e-014
rhumerus -26.0681 0.378033 -79.0503
rradius 28.8916
rwrist -16.5674
rhand -19.6995 0.103362
rfingers 7.12502
rthumb 6.62988 -29.7729
lclavicle -1.8487e-014 2.54444e-014
lhumerus -40.1761 8.25389 81.4317
lradius 41.4479
lwrist 11.3571
lhand -14.2554 -3.19977
lfingers 7.12502
lthumb 11.8828 26.443
rfemur -1.1555 -6.05387 27.4276
rtibia 24.0997
rfoot -19.4807 -23.0511
rtoes -2.45169
lfemur -29.3708 -3.79808 -12.1764
ltibia 51.3516
lfoot -13.5609 11.1485
ltoes -17.3999
190
root -1.21341 17.7268 -28.177 3.11421 8.13917 -3.10549
lowerback 5.52275 4.073 2.8997
upperback 1.5697 5.68175 4.61577
thorax -1.65804 2.83618 2.74162
lowerneck -17.452 -8.94545 -2.54731
upperneck 15.5354 -9.77728 -9.38907
head 7.29141 -5.73457 -3.75809
rclavicle 7.09661e-014 2.54444e-014
rhumerus -25.2139 0.959606 -78.8598
rradius 29.248
rwrist -16.9537
rhand -19.6972 0.0739845
rfingers 7.12502
rthumb 6.63214 -29.8022
lclavicle 7.09661e-014 2.54444e-014
lhumerus -40.6995 9.12671 80.9055
lradius 41.5498
lwrist 11.3712
lhand -14.2827 -3.19183
lfingers 7.12502
lthumb 11.8565 26.4525
rfemur -0.558714 -6.11516 27.5607
rtibia 23.431
rfoot -19.3493 -23.1211
rtoes -2.49786
lfemur -29.9918 -4.02766 -12.1675
ltibia 50.7376
lfoot -13.3413 11.5029
ltoes -17.3265
